<?xml version="1.0" encoding="UTF-8"?> <svg xmlns="http://www.w3.org/2000/svg" width="696" height="258" viewBox="0 0 696 258" fill="none"><path d="M154.656 212.141V203.045H159.946V212.141H154.656ZM154.656 256.225V216.838H159.946V256.215L154.656 256.225Z" fill="white"></path><path d="M173.612 256.215V221.683H165.344V216.838H173.612V203.045H178.902V216.838H188.071V221.683H178.877V256.215H173.612Z" fill="white"></path><path d="M233.527 216.839V256.181H228.349V248.785C227.475 250.329 226.379 251.737 225.097 252.963C221.867 255.726 217.887 257.107 213.155 257.107C209.813 257.063 206.525 256.259 203.54 254.756C200.538 253.387 197.893 251.344 195.81 248.785C194.555 247.089 193.599 245.191 192.984 243.172C192.29 241.028 191.935 238.788 191.931 236.535C191.909 232.911 192.887 229.352 194.757 226.249C196.619 223.119 199.28 220.541 202.467 218.779C205.673 216.938 209.311 215.981 213.008 216.006C215.292 215.994 217.561 216.37 219.719 217.118C221.736 217.806 223.591 218.9 225.17 220.331C226.449 221.487 227.523 222.85 228.349 224.363V216.819L233.527 216.839ZM213.287 221.052C210.439 221.025 207.633 221.746 205.151 223.143C202.743 224.482 200.738 226.442 199.347 228.82C197.947 231.193 197.219 233.902 197.241 236.657C197.225 239.364 197.968 242.022 199.386 244.328C200.797 246.67 202.79 248.607 205.171 249.951C207.571 251.335 210.296 252.055 213.067 252.038C215.742 252.046 218.369 251.325 220.664 249.951C222.986 248.592 224.917 246.655 226.267 244.328C227.637 242.005 228.351 239.354 228.334 236.657C228.345 233.936 227.645 231.26 226.302 228.894C224.998 226.534 223.098 224.558 220.791 223.163C218.536 221.773 215.936 221.042 213.287 221.052Z" fill="white"></path><path d="M242.588 256.215V203.045H247.874V256.215H242.588Z" fill="white"></path><path d="M256.97 212.141V203.045H262.27V212.141H256.97ZM256.97 256.225V216.838H262.27V256.215L256.97 256.225Z" fill="white"></path><path d="M311.437 216.839V256.181H306.26V248.785C305.384 250.328 304.288 251.735 303.007 252.963C299.775 255.726 295.792 257.107 291.061 257.107C287.72 257.062 284.434 256.258 281.45 254.756C278.447 253.39 275.801 251.346 273.721 248.785C272.464 247.089 271.506 245.191 270.89 243.172C270.198 241.027 269.843 238.788 269.837 236.535C269.816 232.911 270.796 229.352 272.668 226.249C274.53 223.109 277.196 220.523 280.392 218.759C283.597 216.918 287.233 215.961 290.928 215.987C293.212 215.974 295.481 216.35 297.639 217.099C301.322 218.349 304.403 220.933 306.274 224.343V216.8L311.437 216.839ZM291.212 221.052C288.364 221.025 285.559 221.746 283.077 223.143C280.668 224.482 278.664 226.442 277.272 228.82C275.87 231.193 275.141 233.902 275.161 236.657C275.146 239.364 275.889 242.022 277.306 244.328C278.721 246.669 280.715 248.606 283.096 249.951C285.495 251.334 288.218 252.055 290.987 252.038C293.664 252.047 296.293 251.326 298.589 249.951C300.909 248.591 302.838 246.654 304.188 244.328C305.561 242.006 306.277 239.355 306.26 236.657C306.271 233.936 305.57 231.26 304.227 228.894C302.923 226.534 301.023 224.558 298.717 223.163C296.461 221.773 293.862 221.042 291.212 221.052Z" fill="white"></path><path d="M320.494 256.215V216.799H325.49V222.976C326.281 221.674 327.223 220.471 328.297 219.391C330.864 217.124 334.353 215.982 338.764 215.962C344.407 215.962 348.721 217.836 351.705 221.585C352.89 223.08 353.788 224.78 354.355 226.601C355.009 228.772 355.335 231.731 355.335 235.476V256.215H349.947V235.476C349.948 233.744 349.826 232.014 349.58 230.299C349.109 227.389 347.864 225.122 345.842 223.495C343.821 221.869 341.258 221.053 338.152 221.046C336.09 221.046 334.055 221.515 332.201 222.418C330.479 223.194 328.989 224.404 327.876 225.93C327.062 226.984 326.499 228.211 326.23 229.515C325.895 231.482 325.753 233.477 325.804 235.471V256.21L320.494 256.215Z" fill="white"></path><path d="M386.977 256.215V221.682H380.879V216.838H386.977C386.916 214.801 387.229 212.771 387.903 210.848C388.492 209.239 389.448 207.79 390.695 206.616C391.987 205.416 393.518 204.501 395.187 203.931C397.074 203.325 399.047 203.025 401.03 203.045H402.01V207.904H401.03C395.211 207.904 392.301 210.627 392.301 216.074V216.853H402.064V221.697H392.301V256.229L386.977 256.215Z" fill="white"></path><path d="M425.585 215.987C429.24 215.964 432.835 216.921 435.994 218.759C439.131 220.558 441.748 223.138 443.591 226.248C445.444 229.323 446.416 232.847 446.403 236.437C446.422 240.063 445.463 243.626 443.625 246.752C441.833 249.878 439.259 252.484 436.156 254.315C433.075 256.164 429.545 257.13 425.953 257.107C422.361 257.074 418.838 256.12 415.721 254.336C412.604 252.552 409.996 249.998 408.148 246.919C406.305 243.841 405.339 240.318 405.356 236.731C405.338 233.115 406.296 229.562 408.128 226.444C409.892 223.302 412.44 220.671 415.524 218.808C418.549 216.948 422.034 215.971 425.585 215.987ZM425.953 221.051C423.2 221.114 420.511 221.892 418.15 223.31C415.84 224.649 413.937 226.591 412.644 228.928C411.328 231.316 410.653 234.004 410.685 236.731C410.676 238.746 411.068 240.744 411.837 242.607C412.605 244.471 413.736 246.163 415.163 247.587C416.59 249.011 418.286 250.137 420.151 250.901C422.017 251.665 424.015 252.051 426.031 252.037C428.724 252.065 431.373 251.349 433.687 249.97C435.969 248.574 437.838 246.596 439.104 244.24C440.428 241.773 441.102 239.01 441.064 236.211C441.07 233.576 440.375 230.986 439.05 228.707C437.747 226.406 435.869 224.482 433.599 223.123C431.388 221.767 428.845 221.049 426.251 221.051H425.953Z" fill="white"></path><path d="M472.691 215.987C476.346 215.963 479.94 216.921 483.099 218.759C486.238 220.555 488.856 223.136 490.697 226.248C492.552 229.322 493.525 232.847 493.508 236.437C493.527 240.062 492.569 243.625 490.736 246.752C488.94 249.876 486.367 252.481 483.266 254.315C480.183 256.163 476.652 257.129 473.058 257.107C469.467 257.074 465.944 256.12 462.826 254.336C459.709 252.552 457.102 249.998 455.253 246.919C453.411 243.841 452.448 240.317 452.466 236.731C452.447 233.115 453.405 229.561 455.238 226.444C456.999 223.301 459.546 220.67 462.63 218.808C465.655 216.949 469.14 215.972 472.691 215.987ZM473.058 221.052C470.305 221.115 467.616 221.893 465.255 223.31C462.952 224.653 461.055 226.594 459.764 228.928C458.448 231.316 457.773 234.004 457.805 236.731C457.795 238.746 458.186 240.744 458.954 242.608C459.722 244.472 460.852 246.164 462.279 247.588C463.706 249.012 465.401 250.138 467.267 250.902C469.132 251.666 471.131 252.052 473.146 252.038C475.84 252.065 478.488 251.349 480.802 249.97C483.085 248.576 484.955 246.597 486.22 244.24C487.543 241.773 488.217 239.01 488.179 236.211C488.186 233.575 487.49 230.984 486.161 228.707C484.857 226.406 482.979 224.482 480.709 223.123C478.499 221.766 475.955 221.049 473.362 221.052H473.058Z" fill="white"></path><path d="M541.319 203.045V256.181H536.216V249.005C535.198 250.381 534.066 251.669 532.831 252.855C531.798 253.772 530.645 254.543 529.402 255.147C526.673 256.472 523.673 257.143 520.639 257.106C514.252 257.106 508.668 254.406 503.887 249.005C501.004 245.824 499.562 241.635 499.562 236.436C499.543 232.829 500.516 229.286 502.374 226.194C504.215 223.068 506.856 220.489 510.025 218.724C513.262 216.896 516.922 215.952 520.639 215.986C524.968 215.9 529.19 217.326 532.581 220.017C533.89 221.077 535.037 222.323 535.985 223.715V203.045H541.319ZM536.078 236.583C536.101 233.832 535.385 231.126 534.006 228.746C532.665 226.394 530.709 224.45 528.349 223.123C525.929 221.74 523.186 221.025 520.399 221.051C517.685 221.048 515.017 221.758 512.662 223.108C510.307 224.458 508.347 226.402 506.978 228.746C505.6 231.073 504.884 233.732 504.906 236.436C504.902 239.169 505.622 241.854 506.992 244.218C508.363 246.583 510.335 248.542 512.709 249.896C515.05 251.312 517.737 252.052 520.473 252.037C523.201 252.051 525.883 251.331 528.236 249.95C530.597 248.588 532.566 246.639 533.953 244.293C535.354 241.966 536.09 239.299 536.078 236.583Z" fill="white"></path><path d="M371.661 43.2463V166.607H355.428V143.419C352.682 148.257 349.247 152.669 345.23 156.517C335.107 165.177 322.623 169.506 307.778 169.502C297.884 169.502 287.836 167.053 277.635 162.155C267.433 157.257 259.356 151.012 253.403 143.419C249.697 138.544 246.742 132.65 244.538 125.737C242.364 119.013 241.249 111.991 241.231 104.924C241.171 93.5763 244.24 82.431 250.102 72.7139C255.936 62.899 264.28 54.8157 274.275 49.2956C284.325 43.508 295.735 40.5004 307.333 40.5817C314.5 40.535 321.623 41.7111 328.395 44.0594C334.726 46.2128 340.547 49.6458 345.494 54.1448C349.201 57.3939 352.523 61.6064 355.462 66.7822V43.1288L371.661 43.2463ZM308.244 56.4714C299.315 56.3829 290.519 58.643 282.739 63.0252C275.186 67.2183 268.9 73.3644 264.537 80.8204C260.144 88.262 257.858 96.7584 257.924 105.4C257.878 113.888 260.208 122.221 264.65 129.455C269.074 136.793 275.316 142.866 282.773 147.088C290.294 151.434 298.838 153.696 307.524 153.642C315.915 153.673 324.154 151.406 331.348 147.088C338.628 142.825 344.679 136.75 348.913 129.455C353.216 122.172 355.459 113.858 355.404 105.4C355.436 96.8674 353.241 88.4744 349.036 81.0506C344.951 73.6514 338.993 67.4556 331.76 63.084C324.691 58.7295 316.546 56.4359 308.244 56.4617V56.4714Z" fill="white"></path><path d="M397.499 166.72V58.4358H378.396V43.2514H397.499C397.499 35.6787 398.466 29.4188 400.399 24.4717C402.243 19.4243 405.24 14.8773 409.152 11.1926C413.205 7.43296 418.005 4.56905 423.239 2.78731C429.156 0.879351 435.342 -0.0601434 441.558 0.00513516H444.571V15.1896H441.544C423.299 15.1896 414.177 23.7304 414.177 40.812V43.2611H444.791V58.4456H414.177V166.72H397.499Z" fill="white"></path><path d="M477.364 166.72V58.4355H451.511V43.2511H477.364V0H493.954V43.2462H522.707V58.4306H493.954V166.72H477.364Z" fill="white"></path><path d="M637.672 109.91H525.993C526.842 116.556 528.148 121.772 529.912 125.56C532.378 131.076 535.922 136.044 540.335 140.171C544.896 144.43 550.212 147.799 556.009 150.105C561.826 152.451 568.042 153.652 574.314 153.641C587.748 153.641 599.293 149.042 608.949 139.843C612.777 136.001 615.912 131.527 618.217 126.618H635.821C632.728 133.73 629.953 139.064 627.494 142.62C625.035 146.177 621.56 149.849 617.07 153.637C611.129 158.746 604.296 162.714 596.914 165.343C589.535 168.077 581.732 169.49 573.863 169.517C562.574 169.455 551.499 166.433 541.742 160.753C531.986 155.074 523.89 146.935 518.262 137.148C512.634 127.362 509.671 116.271 509.668 104.981C509.666 93.6922 512.625 82.5998 518.249 72.8113C523.827 63.0524 531.877 54.9348 541.589 49.2755C551.277 43.5206 562.35 40.5149 573.618 40.5812C583.226 40.5703 592.712 42.7221 601.375 46.877C610.037 51.0318 617.653 57.0831 623.658 64.5823C629.537 71.8701 633.694 80.3909 635.821 89.5093C636.595 92.9837 637.212 99.7841 637.672 109.91ZM526.591 94.7259H620.636C619.385 87.6542 616.399 81.0032 611.947 75.3682C607.455 69.5219 601.687 64.7796 595.082 61.5036C588.477 58.2275 581.211 56.5045 573.839 56.466C566.529 56.4095 559.301 58.0158 552.703 61.1634C546.176 64.2958 540.48 68.9243 536.079 74.6726C531.477 80.5743 528.237 87.4205 526.591 94.721V94.7259Z" fill="white"></path><path d="M644.383 166.721V43.2467H660.057V60.988C662.379 56.658 664.699 53.4105 667.017 51.2455C669.949 48.3307 673.41 46.0031 677.215 44.388C681.624 42.4516 687.885 41.1764 696 40.5625V57.0401C688.888 57.814 683.09 59.4761 678.607 62.0264C672.036 66.1997 667.207 71.3395 664.118 77.446C662.031 81.3841 660.988 88.1077 660.988 97.6168V166.721H644.383Z" fill="white"></path><path d="M18.8777 101.741C7.41588 91.4543 8.49649e-07 75.0062 8.49649e-07 56.5008C-0.00128603 49.0806 1.45927 41.7329 4.29824 34.8773C7.13722 28.0218 11.299 21.7927 16.5458 16.5458C21.7927 11.299 28.0218 7.13722 34.8773 4.29824C41.7329 1.45927 49.0806 -0.00128603 56.5008 8.49649e-07C66.1632 0.0366846 75.7807 1.31748 85.116 3.8108C72.1728 11.2244 60.2611 20.3085 49.6874 30.8293C49.6874 30.8293 20.8516 58.1074 18.8777 101.741Z" fill="#0C9933"></path><path d="M150.668 131.84C164.06 131.84 176.781 128.411 188.341 124.365V160.088C188.331 162.583 187.336 164.973 185.571 166.736C183.807 168.5 181.416 169.494 178.921 169.502H47.0862C44.5926 169.493 42.2038 168.498 40.441 166.734C38.6782 164.971 37.6845 162.581 37.6768 160.088V131.84H150.668Z" fill="#C81D2F"></path><path d="M226.023 56.5008C226.023 87.7122 192.303 111.851 150.688 111.851H37.6771C36.9031 72.7139 62.9763 44.1427 62.9763 44.1427C76.9501 30.1315 93.5544 19.0191 111.835 11.4437C130.116 3.8684 149.714 -0.0206236 169.502 8.22476e-05C176.924 -0.00442319 184.274 1.4538 191.133 4.29139C197.991 7.12898 204.222 11.2903 209.471 16.5375C214.72 21.7848 218.884 28.015 221.724 34.8721C224.564 41.7293 226.025 49.0789 226.023 56.5008Z" fill="white"></path></svg> 