<?xml version="1.0" encoding="UTF-8"?> <svg xmlns="http://www.w3.org/2000/svg" width="60" height="23" viewBox="0 0 60 23" fill="none"><g clip-path="url(#clip0_392_5)"><path d="M13.5547 18.6106V17.8369H14.0047V18.6106H13.5547ZM13.5547 22.3606V19.0102H14.0047V22.3598L13.5547 22.3606Z" fill="#0B0B0B"></path><path d="M15.1643 22.3598V19.4223H14.4609V19.0102H15.1643V17.8369H15.6143V19.0102H16.3943V19.4223H15.6122V22.3598H15.1643Z" fill="#0B0B0B"></path><path d="M20.2649 19.0104V22.357H19.8245V21.7279C19.7501 21.8592 19.6569 21.9789 19.5478 22.0833C19.2731 22.3183 18.9345 22.4358 18.532 22.4358C18.2477 22.432 17.968 22.3636 17.7141 22.2358C17.4588 22.1193 17.2337 21.9455 17.0566 21.7279C16.9498 21.5836 16.8685 21.4221 16.8162 21.2504C16.7571 21.068 16.7269 20.8775 16.7266 20.6858C16.7247 20.3775 16.8079 20.0748 16.967 19.8108C17.1254 19.5446 17.3517 19.3252 17.6228 19.1754C17.8956 19.0187 18.205 18.9374 18.5195 18.9395C18.7138 18.9385 18.9068 18.9704 19.0903 19.0341C19.262 19.0926 19.4198 19.1856 19.5541 19.3074C19.6628 19.4058 19.7543 19.5217 19.8245 19.6504V19.0087L20.2649 19.0104ZM18.5433 19.3687C18.301 19.3664 18.0623 19.4278 17.8512 19.5466C17.6463 19.6605 17.4758 19.8273 17.3574 20.0295C17.2383 20.2314 17.1764 20.4618 17.1783 20.6962C17.1769 20.9265 17.2402 21.1525 17.3608 21.3487C17.4808 21.5479 17.6503 21.7127 17.8528 21.827C18.057 21.9447 18.2888 22.006 18.5245 22.0045C18.7521 22.0053 18.9755 21.9439 19.1708 21.827C19.3683 21.7114 19.5325 21.5466 19.6474 21.3487C19.7639 21.1511 19.8247 20.9256 19.8233 20.6962C19.8242 20.4647 19.7646 20.2371 19.6503 20.0358C19.5394 19.8351 19.3778 19.667 19.1816 19.5483C18.9897 19.4301 18.7686 19.3679 18.5433 19.3687Z" fill="#0B0B0B"></path><path d="M21.0312 22.3598V17.8369H21.4809V22.3598H21.0312Z" fill="#0B0B0B"></path><path d="M22.2578 18.6106V17.8369H22.7086V18.6106H22.2578ZM22.2578 22.3606V19.0102H22.7086V22.3598L22.2578 22.3606Z" fill="#0B0B0B"></path><path d="M26.8903 19.01V22.3567H26.4499V21.7275C26.3754 21.8588 26.2822 21.9785 26.1733 22.083C25.8983 22.318 25.5595 22.4355 25.157 22.4355C24.8729 22.4316 24.5933 22.3632 24.3395 22.2355C24.084 22.1192 23.859 21.9454 23.682 21.7275C23.5751 21.5833 23.4936 21.4218 23.4412 21.25C23.3823 21.0676 23.3521 20.8772 23.3516 20.6855C23.3498 20.3772 23.4332 20.0744 23.5924 19.8105C23.7508 19.5434 23.9776 19.3234 24.2495 19.1734C24.5221 19.0167 24.8314 18.9354 25.1458 18.9375C25.34 18.9364 25.5331 18.9684 25.7166 19.0321C26.0299 19.1385 26.292 19.3583 26.4512 19.6484V19.0067L26.8903 19.01ZM25.1699 19.3684C24.9276 19.3661 24.689 19.4274 24.4778 19.5463C24.273 19.6602 24.1025 19.8269 23.9841 20.0292C23.8648 20.231 23.8028 20.4615 23.8045 20.6959C23.8032 20.9262 23.8664 21.1522 23.987 21.3484C24.1073 21.5475 24.2769 21.7123 24.4795 21.8267C24.6835 21.9444 24.9152 22.0057 25.1508 22.0042C25.3785 22.005 25.6021 21.9437 25.7974 21.8267C25.9948 21.711 26.1588 21.5462 26.2737 21.3484C26.3905 21.1509 26.4514 20.9253 26.4499 20.6959C26.4508 20.4644 26.3912 20.2368 26.277 20.0355C26.1661 19.8347 26.0045 19.6666 25.8083 19.548C25.6164 19.4297 25.3953 19.3675 25.1699 19.3684Z" fill="#0B0B0B"></path><path d="M27.6641 22.3597V19.0068H28.0891V19.5322C28.1563 19.4214 28.2365 19.3191 28.3278 19.2272C28.5461 19.0344 28.843 18.9372 29.2182 18.9355C29.6982 18.9355 30.0652 19.095 30.3191 19.4139C30.4198 19.541 30.4962 19.6856 30.5445 19.8405C30.6 20.0252 30.6278 20.277 30.6278 20.5956V22.3597H30.1695V20.5956C30.1696 20.4483 30.1592 20.301 30.1382 20.1551C30.0982 19.9076 29.9923 19.7148 29.8203 19.5765C29.6484 19.4381 29.4303 19.3686 29.1661 19.368C28.9907 19.368 28.8176 19.4079 28.6599 19.4847C28.5135 19.5507 28.3867 19.6537 28.292 19.7834C28.2227 19.8731 28.1749 19.9775 28.152 20.0884C28.1235 20.2558 28.1114 20.4254 28.1157 20.5951V22.3593L27.6641 22.3597Z" fill="#0B0B0B"></path><path d="M33.3156 22.3599V19.4224H32.7969V19.0104H33.3156C33.3104 18.8371 33.3371 18.6644 33.3944 18.5008C33.4445 18.364 33.5258 18.2407 33.6319 18.1408C33.7418 18.0387 33.872 17.9609 34.014 17.9124C34.1745 17.8608 34.3424 17.8354 34.511 17.837H34.5944V18.2504H34.511C34.016 18.2504 33.7685 18.482 33.7685 18.9454V19.0116H34.599V19.4237H33.7685V22.3612L33.3156 22.3599Z" fill="#0B0B0B"></path><path d="M36.6037 18.9375C36.9146 18.9356 37.2203 19.017 37.4891 19.1734C37.7559 19.3264 37.9785 19.5458 38.1353 19.8105C38.2929 20.072 38.3757 20.3718 38.3745 20.6771C38.3761 20.9855 38.2945 21.2887 38.1382 21.5546C37.9858 21.8205 37.7668 22.0422 37.5028 22.198C37.2408 22.3552 36.9405 22.4374 36.6349 22.4355C36.3294 22.4326 36.0297 22.3514 35.7646 22.1997C35.4994 22.048 35.2776 21.8307 35.1203 21.5688C34.9635 21.307 34.8814 21.0073 34.8828 20.7021C34.8814 20.3946 34.9628 20.0923 35.1187 19.8271C35.2687 19.5598 35.4855 19.336 35.7478 19.1775C36.0052 19.0193 36.3016 18.9362 36.6037 18.9375ZM36.6349 19.3684C36.4007 19.3737 36.172 19.4399 35.9712 19.5605C35.7747 19.6744 35.6128 19.8396 35.5028 20.0384C35.3909 20.2415 35.3334 20.4702 35.3362 20.7021C35.3354 20.8736 35.3687 21.0435 35.4341 21.202C35.4995 21.3605 35.5957 21.5045 35.7171 21.6256C35.8385 21.7467 35.9827 21.8425 36.1414 21.9075C36.3001 21.9725 36.4701 22.0054 36.6416 22.0042C36.8707 22.0065 37.096 21.9457 37.2928 21.8284C37.4869 21.7096 37.646 21.5413 37.7537 21.3409C37.8662 21.131 37.9236 20.896 37.9203 20.6579C37.9209 20.4337 37.8618 20.2134 37.7491 20.0196C37.6382 19.8238 37.4784 19.6601 37.2853 19.5446C37.0973 19.4292 36.881 19.3682 36.6603 19.3684H36.6349Z" fill="#0B0B0B"></path><path d="M40.6111 18.9375C40.922 18.9355 41.2277 19.017 41.4965 19.1734C41.7635 19.3261 41.9862 19.5457 42.1427 19.8105C42.3006 20.0719 42.3833 20.3717 42.3819 20.6771C42.3835 20.9855 42.302 21.2886 42.1461 21.5546C41.9933 21.8203 41.7744 22.042 41.5106 22.198C41.2484 22.3552 40.948 22.4373 40.6423 22.4355C40.3368 22.4326 40.0371 22.3514 39.772 22.1997C39.5068 22.048 39.285 21.8307 39.1277 21.5688C38.9711 21.307 38.8891 21.0072 38.8906 20.7021C38.8891 20.3945 38.9705 20.0922 39.1265 19.8271C39.2762 19.5598 39.4929 19.3359 39.7552 19.1775C40.0126 19.0194 40.309 18.9362 40.6111 18.9375ZM40.6423 19.3684C40.4081 19.3738 40.1794 19.44 39.9786 19.5605C39.7826 19.6747 39.6212 19.8399 39.5115 20.0384C39.3995 20.2415 39.3421 20.4702 39.3448 20.7021C39.344 20.8736 39.3772 21.0435 39.4425 21.2021C39.5078 21.3606 39.604 21.5046 39.7254 21.6257C39.8467 21.7468 39.991 21.8427 40.1497 21.9076C40.3083 21.9726 40.4783 22.0054 40.6498 22.0042C40.8789 22.0065 41.1042 21.9457 41.3011 21.8284C41.4953 21.7097 41.6543 21.5414 41.7619 21.3409C41.8745 21.131 41.9318 20.896 41.9286 20.658C41.9292 20.4337 41.8699 20.2133 41.7569 20.0196C41.646 19.8238 41.4862 19.6602 41.2931 19.5446C41.1051 19.4292 40.8888 19.3682 40.6681 19.3684H40.6423Z" fill="#0B0B0B"></path><path d="M46.4427 17.8369V22.3569H46.0086V21.7465C45.922 21.8635 45.8257 21.9731 45.7207 22.074C45.6328 22.152 45.5348 22.2176 45.4291 22.269C45.1969 22.3817 44.9417 22.4387 44.6837 22.4356C44.1403 22.4356 43.6652 22.2059 43.2586 21.7465C43.0133 21.4759 42.8906 21.1195 42.8906 20.6773C42.889 20.3704 42.9718 20.069 43.1298 19.806C43.2864 19.5401 43.5112 19.3208 43.7808 19.1706C44.0561 19.0151 44.3675 18.9348 44.6837 18.9377C45.0519 18.9304 45.4111 19.0517 45.6995 19.2806C45.8109 19.3708 45.9083 19.4768 45.989 19.5952V17.8369H46.4427ZM45.9969 20.6898C45.9988 20.4558 45.938 20.2256 45.8208 20.0231C45.7066 19.823 45.5403 19.6577 45.3395 19.5448C45.1337 19.4272 44.9002 19.3664 44.6632 19.3685C44.4322 19.3683 44.2054 19.4287 44.0051 19.5435C43.8048 19.6584 43.638 19.8237 43.5215 20.0231C43.4043 20.2211 43.3433 20.4473 43.3452 20.6773C43.3449 20.9098 43.4062 21.1382 43.5228 21.3393C43.6394 21.5404 43.8071 21.7071 44.009 21.8223C44.2081 21.9427 44.4367 22.0057 44.6694 22.0044C44.9015 22.0056 45.1296 21.9443 45.3298 21.8269C45.5306 21.711 45.6982 21.5452 45.8162 21.3456C45.9354 21.1477 45.9979 20.9208 45.9969 20.6898Z" fill="#0B0B0B"></path><path d="M32.0169 4.24344V14.7371H30.6361V12.7646C30.4026 13.1762 30.1103 13.5515 29.7686 13.8788C28.9075 14.6155 27.8456 14.9837 26.5828 14.9834C25.7411 14.9834 24.8864 14.775 24.0186 14.3584C23.1508 13.9417 22.4637 13.4105 21.9573 12.7646C21.642 12.3499 21.3906 11.8485 21.2031 11.2605C21.0182 10.6885 20.9234 10.0912 20.922 9.49004C20.9168 8.52474 21.1779 7.57664 21.6765 6.75004C22.1728 5.91514 22.8825 5.22754 23.7327 4.75804C24.5876 4.26564 25.5582 4.00984 26.5448 4.01674C27.1545 4.01274 27.7604 4.11284 28.3364 4.31254C28.875 4.49574 29.3701 4.78784 29.791 5.17054C30.1063 5.44694 30.389 5.80524 30.639 6.24554V4.23344L32.0169 4.24344ZM26.6223 5.36844C25.8627 5.36084 25.1146 5.55314 24.4528 5.92594C23.8103 6.28264 23.2755 6.80544 22.9044 7.43964C22.5307 8.07274 22.3362 8.79544 22.3419 9.53054C22.3379 10.2526 22.5362 10.9614 22.914 11.5767C23.2904 12.201 23.8214 12.7176 24.4557 13.0767C25.0955 13.4464 25.8222 13.6388 26.5611 13.6342C27.2749 13.6368 27.9757 13.444 28.5877 13.0767C29.2069 12.7141 29.7217 12.1973 30.082 11.5767C30.4479 10.9572 30.6387 10.25 30.6339 9.53054C30.6367 8.80474 30.45 8.09074 30.0924 7.45924C29.7449 6.82984 29.238 6.30284 28.6227 5.93094C28.0214 5.56054 27.3285 5.36634 26.6223 5.36844Z" fill="#0B0B0B"></path><path d="M34.2109 14.7463V5.53513H32.5859V4.24343H34.2109C34.2109 3.59933 34.2932 3.06683 34.4576 2.64593C34.6145 2.21663 34.8694 1.82983 35.2022 1.51633C35.547 1.19653 35.9553 0.952929 36.4005 0.801329C36.9038 0.639029 37.4301 0.559128 37.9589 0.564728H38.2151V1.85633H37.9576C36.4057 1.85633 35.6297 2.58293 35.6297 4.03593V4.24433H38.2339V5.53593H35.6297V14.7463H34.2109Z" fill="#0B0B0B"></path><path d="M41.0039 14.7466V5.53525H38.8047V4.24355H41.0039V0.564453H42.4151V4.24315H44.8609V5.53485H42.4151V14.7466H41.0039Z" fill="#0B0B0B"></path><path d="M54.6387 9.91419H45.1387C45.2109 10.4795 45.322 10.9232 45.472 11.2454C45.6818 11.7147 45.9832 12.1373 46.3587 12.4884C46.7466 12.8506 47.1988 13.1372 47.692 13.3334C48.1868 13.5329 48.7155 13.6351 49.2491 13.6342C50.3919 13.6342 51.3739 13.2429 52.1953 12.4604C52.5209 12.1336 52.7876 11.753 52.9837 11.3354H54.4812C54.2181 11.9404 53.982 12.3942 53.7728 12.6967C53.5637 12.9992 53.2681 13.3116 52.8862 13.6338C52.3808 14.0684 51.7995 14.406 51.1716 14.6296C50.5439 14.8622 49.8801 14.9823 49.2108 14.9846C48.2504 14.9793 47.3083 14.7223 46.4784 14.2392C45.6484 13.756 44.9597 13.0637 44.481 12.2312C44.0022 11.3987 43.7502 10.4552 43.75 9.49489C43.7498 8.53459 44.0015 7.59099 44.4799 6.75839C44.9544 5.92819 45.6392 5.23769 46.4653 4.75629C47.2895 4.26669 48.2314 4.01109 49.1899 4.01669C50.0072 4.01579 50.8141 4.19879 51.551 4.55219C52.2879 4.90569 52.9358 5.42039 53.4466 6.05839C53.9466 6.67829 54.3003 7.40309 54.4812 8.17879C54.547 8.47429 54.5995 9.05279 54.6387 9.91419ZM45.1895 8.62249H53.1895C53.083 8.02099 52.8291 7.45519 52.4503 6.97589C52.0683 6.47849 51.5776 6.07509 51.0157 5.79649C50.4539 5.51779 49.8358 5.37119 49.2087 5.36789C48.5868 5.36309 47.972 5.49979 47.4108 5.76749C46.8555 6.03399 46.371 6.42769 45.9966 6.91669C45.6051 7.41869 45.3295 8.00149 45.1895 8.62249Z" fill="#0B0B0B"></path><path d="M55.2109 14.7463V4.24295H56.5443V5.75215C56.7418 5.38385 56.9391 5.10755 57.1364 4.92345C57.3857 4.67545 57.6802 4.47745 58.0039 4.34005C58.3789 4.17535 58.9115 4.06685 59.6018 4.01465V5.41635C58.9968 5.48215 58.5036 5.62355 58.1222 5.84045C57.5633 6.19545 57.1525 6.63275 56.8897 7.15215C56.7122 7.48715 56.6234 8.05915 56.6234 8.86795V14.7463H55.2109Z" fill="#0B0B0B"></path><path d="M2.00434 9.21905C1.02934 8.34405 0.398438 6.94485 0.398438 5.37065C0.398338 4.73945 0.522637 4.11445 0.764137 3.53125C1.00564 2.94815 1.35964 2.41825 1.80594 1.97185C2.25224 1.52555 2.78214 1.17155 3.36534 0.930053C3.94854 0.688553 4.57354 0.564353 5.20474 0.564453C6.02664 0.567553 6.84474 0.676453 7.63894 0.888553C6.53784 1.51925 5.52464 2.29195 4.62514 3.18695C4.62514 3.18695 2.17224 5.50735 2.00434 9.21905Z" fill="#0B9933"></path><path d="M13.2132 11.7794C14.3524 11.7794 15.4345 11.4878 16.4178 11.1436V14.1823C16.417 14.3946 16.3324 14.5979 16.1823 14.7479C16.0321 14.898 15.8288 14.9825 15.6166 14.9832H4.40196C4.18986 14.9824 3.98666 14.8978 3.83666 14.7477C3.68666 14.5977 3.60216 14.3945 3.60156 14.1823V11.7794H13.2132Z" fill="#C91D30"></path><path d="M19.6247 5.37066C19.6247 8.02566 16.7563 10.0791 13.2163 10.0791H3.603C3.5372 6.74986 5.7551 4.31946 5.7551 4.31946C6.9438 3.12756 8.3562 2.18226 9.9113 1.53786C11.4664 0.893461 13.1334 0.56266 14.8167 0.56446C15.4481 0.56406 16.0733 0.68806 16.6567 0.92946C17.2401 1.17086 17.7702 1.52486 18.2167 1.97116C18.6632 2.41756 19.0174 2.94756 19.259 3.53086C19.5006 4.11416 19.6248 4.73936 19.6247 5.37066Z" fill="#DADADA"></path></g><defs><clipPath id="clip0_392_5"><rect width="60" height="23" fill="white"></rect></clipPath></defs></svg> 